Coordinates
version=1
nRows=12
nColumns=24
inDegrees=yes

Units are S.I. units (second, meters, Newtons, ...)
Angles are in degrees.

endheader
time	pelvis_tilt	pelvis_list	pelvis_rotation	pelvis_tx	pelvis_ty	pelvis_tz	hip_flexion_r	hip_adduction_r	hip_rotation_r	knee_angle_r	ankle_angle_r	subtalar_angle_r	mtp_angle_r	hip_flexion_l	hip_adduction_l	hip_rotation_l	knee_angle_l	ankle_angle_l	subtalar_angle_l	mtp_angle_l	lumbar_extension	lumbar_bending	lumbar_rotation
      2.68000000	    -11.71792358	      7.60665171	     -6.28278530	     -2.42880967	     -0.05449787	      0.47974154	     18.10008234	     -8.90043380	      0.92257842	    -65.24887194	    -25.51981010	      9.52038425	     23.99506252	     34.49156074	     10.94610476	     -1.47381167	    -31.96966510	      2.70292529	     10.70800367	     12.88344479	     10.18243196	     -7.25781169	      8.62473530
      2.68500000	    -11.61687450	      7.69024586	     -5.98947553	     -2.42082828	     -0.05326456	      0.47911716	     19.00378738	     -8.93785585	      0.96387334	    -66.07109945	    -24.52400207	      8.97448353	     24.41217156	     33.56758006	     11.32740611	     -1.16803065	    -31.54353905	      3.13352938	     10.84929259	     12.90858489	     10.09757761	     -7.37108031	      8.25902553
      2.69000000	    -11.48721194	      7.73564375	     -5.68821986	     -2.41282559	     -0.05194632	      0.47847858	     19.85589334	     -8.93767198	      0.99698506	    -66.77829671	    -23.54918461	      8.56048865	     24.88584022	     32.58149431	     11.68346663	     -0.78606789	    -31.08909894	      3.55291920	     10.95750810	     12.83899917	      9.97813413	     -7.44390358	      7.84216514
      2.69500000	    -11.26787979	      7.69151590	     -5.37912437	     -2.40477195	     -0.05042479	      0.47777004	     20.55141944	     -8.84852572	      1.03013521	    -67.31753141	    -22.55737864	      8.37687348	     25.57965517	     31.45824070	     11.98338114	     -0.29780529	    -30.62073705	      3.98399163	     10.98027717	     12.46561374	      9.75158386	     -7.41758712	      7.37086949
      2.70000000	    -11.15980097	      7.69270514	     -5.13394577	     -2.39673091	     -0.04907014	      0.47723245	     21.42263520	     -8.76904098	      1.09499293	    -67.83335570	    -21.67494600	      8.01932192	     26.01371384	     30.45048932	     12.24096473	      0.09283914	    -30.10669905	      4.37727708	     11.09215461	     12.39121816	      9.67983448	     -7.42846184	      7.05114979
      2.70500000	    -10.95461690	      7.61858305	     -4.86549212	     -2.38858650	     -0.04750316	      0.47662434	     22.11339408	     -8.62075054	      1.15436952	    -68.17737443	    -20.73805228	      7.93774960	     26.61169569	     29.28958076	     12.45964288	      0.59918344	    -29.55661039	      4.72297710	     11.11949597	     12.11433193	      9.49585211	     -7.35945207	      6.59897292
      2.71000000	    -10.75258205	      7.53800794	     -4.65738864	     -2.38039088	     -0.04596080	      0.47608816	     22.81225401	     -8.44856373	      1.23632769	    -68.43763697	    -19.84906880	      7.82273459	     27.15569091	     28.11131275	     12.63232073	      1.07662353	    -28.97065437	      5.06752095	     11.10509449	     11.85014721	      9.33670409	     -7.26691278	      6.28143106
      2.71500000	    -10.55195718	      7.43203954	     -4.46951948	     -2.37212361	     -0.04439936	      0.47558446	     23.49018499	     -8.23898214	      1.32238744	    -68.59473682	    -18.99040371	      7.75005786	     27.63557663	     26.90521063	     12.75857208	      1.56296440	    -28.34099584	      5.37721727	     11.07259326	     11.61028609	      9.19541130	     -7.13948122	      5.98099697
      2.72000000	    -10.33456934	      7.30015404	     -4.30810113	     -2.36382659	     -0.04282706	      0.47510612	     24.13089531	     -7.99410359	      1.41318773	    -68.65448154	    -18.14842728	      7.71442055	     28.06600775	     25.66047794	     12.84179582	      2.06040293	    -27.67907059	      5.65120451	     10.99181492	     11.36357903	      9.04231546	     -6.97977652	      5.69311624
      2.72500000	    -10.12332457	      7.14245392	     -4.15364775	     -2.35549615	     -0.04126528	      0.47464152	     24.75369824	     -7.71942892	      1.48923409	    -68.61812438	    -17.33781175	      7.69303133	     28.42245562	     24.40195163	     12.88352173	      2.57412212	    -26.98521410	      5.88968909	     10.89452092	     11.12925150	      8.90358506	     -6.78884470	      5.41287275
      2.73000000	     -9.91663914	      6.95338075	     -3.98837656	     -2.34717142	     -0.03972941	      0.47416489	     25.35436848	     -7.41662757	      1.53631273	    -68.48984493	    -16.55821697	      7.68710264	     28.70581392	     23.13620376	     12.88558717	      3.11015862	    -26.27237511	      6.10183154	     10.77130561	     10.90022555	      8.76504475	     -6.56614112	      5.11590544
      2.73500000	     -9.70201194	      6.74370563	     -3.80941723	     -2.33890070	     -0.03824918	      0.47364945	     25.92811579	     -7.10820008	      1.54519548	    -68.28513643	    -15.79433642	      7.67706319	     28.91626471	     21.86143295	     12.86433273	      3.67372095	    -25.55578824	      6.29870917	     10.60797319	     10.66159815	      8.60305933	     -6.32363808	      4.77442535
